<?xml version="1.0" encoding="iso-8859-1"?>
<!-- Generator: Adobe Illustrator 19.0.0, SVG Export Plug-In . SVG Version: 6.00 Build 0)  -->
<svg version="1.1" id="Layer_1" xmlns="http://www.w3.org/2000/svg" xmlns:xlink="http://www.w3.org/1999/xlink" x="0px" y="0px"
	 viewBox="0 0 512 512" style="enable-background:new 0 0 512 512;" xml:space="preserve">
<g transform="translate(0 -1)">
	<g>
		<g>
			<path style="fill:#ffffff;" d="M460.8,26.598H179.2c-4.713,0-8.533,3.82-8.533,8.533V77.8h-34.133V26.6c0-14.142-11.458-25.6-25.6-25.6
				c-14.142,0-25.6,11.458-25.6,25.6v435.2c-23.563,0-42.667,19.104-42.667,42.667c0,4.713,3.82,8.533,8.533,8.533h119.467
				c4.713,0,8.533-3.821,8.533-8.533c0-23.563-19.104-42.667-42.667-42.667V171.667h34.133v42.665c0,4.713,3.82,8.533,8.533,8.533
				h281.6c4.713,0,8.533-3.82,8.533-8.533v-179.2C469.333,30.419,465.513,26.598,460.8,26.598z M160.676,495.933H61.19
				c3.515-9.942,12.998-17.067,24.143-17.067h8.533H128h8.533C147.679,478.867,157.162,485.991,160.676,495.933z M102.4,461.8V26.6
				c0-4.716,3.817-8.533,8.533-8.533c4.716,0,8.533,3.817,8.533,8.533v435.2H102.4z M136.533,154.6V94.867h34.133V154.6H136.533z
				 M452.267,205.798H187.733V43.665h264.533V205.798z"/>
			<path style="fill:#ffffff;" d="M230.4,180.2c4.713,0,8.533-3.82,8.533-8.533v-34.133H256c18.793,0,34.133-15.341,34.133-34.133
				S274.793,69.267,256,69.267h-25.6c-4.713,0-8.533,3.82-8.533,8.533v93.867C221.867,176.38,225.687,180.2,230.4,180.2z
				 M273.067,103.4c0,9.367-7.699,17.067-17.067,17.067h-17.067V86.333H256C265.367,86.333,273.067,94.033,273.067,103.4z"/>
			<path style="fill:#ffffff;" d="M332.8,86.333h34.133c4.713,0,8.533-3.82,8.533-8.533s-3.82-8.533-8.533-8.533H332.8c-4.713,0-8.533,3.82-8.533,8.533
				S328.087,86.333,332.8,86.333z"/>
			<path style="fill:#ffffff;" d="M332.8,129h59.733c4.713,0,8.533-3.821,8.533-8.533s-3.82-8.533-8.533-8.533H332.8c-4.713,0-8.533,3.82-8.533,8.533
				S328.087,129,332.8,129z"/>
			<path style="fill:#ffffff;" d="M332.8,171.667h76.8c4.713,0,8.533-3.82,8.533-8.533s-3.821-8.533-8.533-8.533h-76.8c-4.713,0-8.533,3.82-8.533,8.533
				S328.087,171.667,332.8,171.667z"/>
		</g>
	</g>
</g>
<g>
</g>
<g>
</g>
<g>
</g>
<g>
</g>
<g>
</g>
<g>
</g>
<g>
</g>
<g>
</g>
<g>
</g>
<g>
</g>
<g>
</g>
<g>
</g>
<g>
</g>
<g>
</g>
<g>
</g>
</svg>
